<svg width="232" height="216" viewBox="0 0 232 216" fill="none" xmlns="http://www.w3.org/2000/svg">
<g clip-path="url(#clip0)">
<path d="M231.275 216H0.725061C0.326278 216 0 215.675 0 215.277V0.723083C0 0.325387 0.326278 0 0.725061 0H231.275C231.674 0 232 0.325387 232 0.723083V215.277C232 215.675 231.674 216 231.275 216Z" fill="#02A7FC"/>
<path d="M56.5027 91.8813C60.5251 91.9561 63.5049 91.1387 65.3672 89.4305C67.2295 87.7223 68.1229 85.3455 68.1229 82.1514C68.1229 78.9572 67.2295 76.5804 65.3672 74.8723C63.5049 73.2381 60.5251 72.4214 56.5027 72.4214H42.6483V91.8813H56.5027ZM58.8863 66.4795C64.2497 66.4795 68.3464 67.816 71.1027 70.5644C73.859 73.3129 75.1994 77.175 75.1994 82.1514C75.1994 87.1278 73.859 90.9906 71.1027 93.7383C68.3464 96.4868 64.2497 97.898 58.8863 97.8239H42.6483V119.512H35.5718V66.4795H58.8863Z" fill="white"/>
<path d="M102.632 92.3965C102.036 91.0593 101.291 89.8709 100.323 88.9054C99.3543 87.9399 98.1625 87.1965 96.8957 86.6027C95.5554 86.0829 94.0651 85.7853 92.5013 85.7853C90.8625 85.7853 89.3729 86.0829 88.1062 86.6027C86.7658 87.1965 85.6483 88.0139 84.68 88.9794C83.7117 89.945 82.9663 91.1334 82.445 92.3965C81.9237 93.733 81.5517 95.1443 81.4767 96.6296H103.6C103.525 95.1443 103.153 93.733 102.632 92.3965ZM104.121 117.056C101.217 119.21 97.6412 120.324 93.2461 120.324C90.192 120.324 87.5106 119.804 85.2756 118.839C82.9663 117.873 81.1046 116.462 79.5401 114.679C77.9756 112.896 76.8588 110.742 76.114 108.291C75.2942 105.84 74.8472 103.092 74.7729 100.195C74.7729 97.2982 75.22 94.6245 76.114 92.1736C77.0073 89.7221 78.2741 87.6423 79.9129 85.86C81.4767 84.0771 83.4133 82.6658 85.6483 81.7003C87.8084 80.7348 90.2663 80.215 92.8733 80.215C96.3002 80.215 99.1308 80.8836 101.44 82.2948C103.674 83.7061 105.462 85.5631 106.878 87.717C108.218 89.8709 109.186 92.2477 109.708 94.8473C110.23 97.447 110.378 99.8978 110.304 102.201H81.4767C81.4024 103.909 81.6259 105.469 82.0729 106.954C82.5199 108.514 83.2647 109.851 84.233 110.965C85.2013 112.153 86.4674 113.119 88.0319 113.787C89.5964 114.456 91.3838 114.828 93.4696 114.828C96.1509 114.828 98.386 114.233 100.099 112.971C101.812 111.708 102.93 109.851 103.451 107.326H109.708C108.889 111.634 107.026 114.902 104.121 117.056Z" fill="white"/>
<path d="M140.448 92.3965C139.852 91.0593 139.107 89.8709 138.139 88.9054C137.171 87.9399 135.979 87.1965 134.712 86.6027C133.372 86.0829 131.882 85.7853 130.318 85.7853C128.679 85.7853 127.189 86.0829 125.923 86.6027C124.582 87.1965 123.465 88.0139 122.496 88.9794C121.528 89.945 120.783 91.1334 120.261 92.3965C119.74 93.733 119.368 95.1443 119.293 96.6296H141.417C141.342 95.1443 140.97 93.733 140.448 92.3965ZM141.938 117.056C139.033 119.21 135.458 120.324 131.062 120.324C128.008 120.324 125.327 119.804 123.092 118.839C120.783 117.873 118.921 116.462 117.357 114.679C115.792 112.896 114.675 110.742 113.93 108.291C113.111 105.84 112.664 103.092 112.589 100.195C112.589 97.2982 113.036 94.6245 113.93 92.1736C114.824 89.7221 116.09 87.6423 117.729 85.86C119.293 84.0771 121.23 82.6658 123.465 81.7003C125.625 80.7348 128.083 80.215 130.69 80.215C134.117 80.215 136.947 80.8836 139.256 82.2948C141.491 83.7061 143.279 85.5631 144.694 87.717C146.035 89.8709 147.003 92.2477 147.525 94.8473C148.046 97.447 148.195 99.8978 148.12 102.201H119.293C119.219 103.909 119.442 105.469 119.889 106.954C120.336 108.514 121.081 109.851 122.049 110.965C123.018 112.153 124.284 113.119 125.848 113.787C127.413 114.456 129.2 114.828 131.286 114.828C133.967 114.828 136.202 114.233 137.915 112.971C139.629 111.708 140.746 109.851 141.267 107.326H147.525C146.705 111.634 144.843 114.902 141.938 117.056Z" fill="white"/>
<path d="M157.003 81.112V89.2078H157.153C158.716 86.0884 160.579 83.7857 162.813 82.3004C165.048 80.8144 167.879 80.1464 171.305 80.2205V86.9051C168.773 86.9051 166.613 87.2768 164.825 87.9454C163.037 88.6133 161.621 89.6535 160.504 90.9907C159.387 92.3272 158.642 93.9614 158.121 95.8183C157.599 97.7494 157.375 99.978 157.375 102.429V119.512H151.044V81.112H157.003Z" fill="white"/>
<path d="M197.693 66.4795V105.697C197.693 107.925 197.469 109.931 196.948 111.788C196.426 113.645 195.533 115.204 194.415 116.541C193.298 117.878 191.808 118.918 189.946 119.587C188.084 120.329 185.774 120.701 183.093 120.701C180.56 120.701 178.4 120.329 176.613 119.587C174.825 118.918 173.335 117.878 172.218 116.615C171.1 115.353 170.281 113.793 169.76 112.011C169.238 110.302 168.94 108.371 168.94 106.291V103.097H170.43V106.291C170.43 110.673 171.473 113.867 173.633 116.021C175.793 118.175 178.921 119.29 183.093 119.29C185.253 119.29 187.115 119.067 188.754 118.546C190.319 118.027 191.734 117.21 192.851 116.095C193.968 114.981 194.787 113.422 195.384 111.565C195.905 109.708 196.203 107.331 196.203 104.583V66.4795H197.693Z" fill="white"/>
<path d="M38.1889 131.526V144.684H46.0565V146.344H36.2114V131.526H38.1889Z" fill="white"/>
<path d="M46.9707 133.684V131.526H48.7403V133.684H46.9707ZM48.7403 135.614V146.344H46.9707V135.614H48.7403Z" fill="white"/>
<path d="M49.7397 137.171V135.615H51.5503V134.016C51.5503 133.145 51.8003 132.481 52.3209 132.024C52.8204 131.588 53.5488 131.36 54.5267 131.36C54.6936 131.36 54.881 131.381 55.11 131.402C55.3178 131.422 55.5052 131.464 55.6715 131.526V133.062C55.5263 133 55.3594 132.958 55.172 132.937C54.9846 132.916 54.8183 132.916 54.6725 132.916C54.2357 132.916 53.9025 133 53.6735 133.166C53.4446 133.331 53.3199 133.643 53.3199 134.12V135.615H55.4009V137.171H53.3199V146.345H51.5503V137.171H49.7397Z" fill="white"/>
<path d="M63.5965 138.773C63.4295 138.399 63.2217 138.068 62.9512 137.798C62.6807 137.528 62.3474 137.32 61.9938 137.155C61.619 137.009 61.2027 136.926 60.7652 136.926C60.3073 136.926 59.8909 137.009 59.5373 137.155C59.1625 137.32 58.8504 137.549 58.5799 137.818C58.3094 138.088 58.1016 138.42 57.9557 138.773C57.8099 139.147 57.7057 139.541 57.6852 139.956H63.867C63.8459 139.541 63.7416 139.147 63.5965 138.773ZM64.0128 145.663C63.2006 146.265 62.2016 146.577 60.9737 146.577C60.1206 146.577 59.371 146.432 58.7462 146.162C58.1016 145.892 57.581 145.498 57.1435 145C56.7067 144.502 56.3946 143.9 56.1861 143.215C55.9572 142.53 55.8325 141.762 55.812 140.953C55.812 140.143 55.9367 139.396 56.1861 138.711C56.4362 138.026 56.7898 137.445 57.2477 136.947C57.6852 136.449 58.2263 136.054 58.8504 135.785C59.4542 135.515 60.141 135.37 60.8695 135.37C61.8268 135.37 62.618 135.556 63.2633 135.951C63.8874 136.345 64.3869 136.864 64.7828 137.466C65.1576 138.068 65.4281 138.732 65.5739 139.458C65.7191 140.184 65.7606 140.869 65.7402 141.513H57.6852C57.6641 141.99 57.7268 142.426 57.8515 142.841C57.9762 143.277 58.1847 143.651 58.4552 143.962C58.7257 144.294 59.0794 144.564 59.5169 144.75C59.9536 144.937 60.4531 145.041 61.0364 145.041C61.7853 145.041 62.4101 144.875 62.8885 144.522C63.3675 144.169 63.6796 143.651 63.8254 142.945H65.5739C65.3443 144.149 64.8244 145.062 64.0128 145.663Z" fill="white"/>
<path d="M77.4933 136.777C77.7222 136.611 77.9512 136.424 78.1386 136.216C78.326 136.009 78.4929 135.78 78.6176 135.511C78.7423 135.261 78.805 134.971 78.805 134.659C78.805 134.224 78.6592 133.85 78.3471 133.539C78.035 133.228 77.6187 133.082 77.0981 133.082C76.6817 133.082 76.2865 133.207 75.9328 133.456C75.5785 133.726 75.3911 134.12 75.3911 134.659C75.3911 134.888 75.4327 135.096 75.5369 135.324C75.6201 135.552 75.7243 135.759 75.8701 135.967C76.016 136.196 76.1618 136.403 76.3281 136.611C76.4943 136.818 76.6613 137.025 76.8275 137.233C77.0354 137.088 77.2643 136.942 77.4933 136.777ZM78.8254 146.054C78.0554 146.407 77.2439 146.572 76.4323 146.572C75.4327 146.572 74.6211 146.428 74.0174 146.116C73.4137 145.805 72.9353 145.452 72.6021 145.016C72.2689 144.58 72.0611 144.145 71.9568 143.688C71.8532 143.231 71.7905 142.858 71.7905 142.547C71.7905 141.965 71.8948 141.447 72.0822 141.01C72.2689 140.575 72.519 140.16 72.831 139.807C73.1431 139.454 73.4975 139.142 73.9343 138.852C74.3506 138.582 74.7881 138.312 75.2664 138.063C75.0586 137.773 74.8501 137.503 74.6627 137.233C74.4753 136.963 74.2879 136.694 74.1428 136.424C73.9758 136.154 73.8511 135.884 73.768 135.573C73.6637 135.282 73.6222 134.95 73.6222 134.576C73.6222 134.182 73.7053 133.788 73.8511 133.414C73.9969 133.061 74.2048 132.729 74.4964 132.439C74.7669 132.169 75.1206 131.941 75.5369 131.774C75.9533 131.609 76.4323 131.526 76.9734 131.526C77.4313 131.526 77.8892 131.587 78.326 131.712C78.7634 131.837 79.1382 132.024 79.4707 132.272C79.8039 132.543 80.0745 132.854 80.283 133.228C80.4704 133.622 80.5739 134.057 80.5739 134.555C80.5739 134.992 80.4908 135.407 80.345 135.78C80.1992 136.175 79.9913 136.527 79.7208 136.839C79.4503 137.15 79.1586 137.44 78.8254 137.69C78.4929 137.959 78.1386 138.188 77.7849 138.395L80.4704 141.654C80.7409 140.886 80.9071 140.118 80.9487 139.35H82.6345C82.593 139.786 82.5514 140.16 82.5098 140.471C82.4471 140.782 82.3851 141.073 82.3224 141.343C82.2393 141.612 82.1351 141.862 82.0308 142.11C81.9272 142.38 81.7814 142.671 81.6356 143.003L84.5289 146.344H82.2182L80.6366 144.497C80.1992 145.182 79.5961 145.701 78.8254 146.054ZM75.2664 139.786C74.9543 139.993 74.6627 140.221 74.4337 140.492C74.2048 140.762 74.0174 141.052 73.8716 141.364C73.7264 141.695 73.6637 142.09 73.6637 142.525C73.6637 142.899 73.7469 143.231 73.9138 143.543C74.059 143.854 74.2675 144.124 74.538 144.332C74.8085 144.56 75.1001 144.726 75.4538 144.85C75.787 144.974 76.1407 145.037 76.4943 145.037C77.1812 145.037 77.7849 144.871 78.326 144.56C78.8466 144.248 79.3045 143.812 79.6581 143.273L76.2449 139.184C75.8906 139.371 75.5785 139.579 75.2664 139.786Z" fill="white"/>
<path d="M100.906 131.526V133.186H92.6225V137.897H100.344V139.558H92.6225V144.684H100.969V146.344H90.645V131.526H100.906Z" fill="white"/>
<path d="M104.028 135.618V137.32H104.069C104.798 136.013 105.964 135.369 107.566 135.369C108.274 135.369 108.857 135.473 109.335 135.66C109.814 135.846 110.189 136.116 110.48 136.47C110.772 136.822 110.979 137.216 111.105 137.694C111.208 138.171 111.271 138.711 111.271 139.292V146.348H109.502V139.084C109.502 138.42 109.315 137.901 108.919 137.507C108.524 137.113 108.003 136.926 107.316 136.926C106.775 136.926 106.317 137.009 105.922 137.175C105.526 137.341 105.194 137.57 104.923 137.881C104.652 138.192 104.465 138.545 104.34 138.939C104.194 139.355 104.132 139.811 104.132 140.288V146.348H102.362V135.618H104.028Z" fill="white"/>
<path d="M116.053 146.345L112.057 135.615H114.034L117.052 144.561H117.094L120.029 135.615H121.881L117.947 146.345H116.053Z" fill="white"/>
<path d="M123.028 133.684V131.526H124.797V133.684H123.028ZM124.797 135.614V146.344H123.028V135.614H124.797Z" fill="white"/>
<path d="M128.529 135.613V137.876H128.57C129.007 137.004 129.528 136.361 130.152 135.945C130.777 135.53 131.567 135.343 132.524 135.364V137.232C131.817 137.232 131.213 137.336 130.714 137.523C130.214 137.709 129.819 138 129.506 138.374C129.194 138.748 128.987 139.204 128.841 139.723C128.695 140.263 128.632 140.885 128.632 141.57V146.343H126.863V135.613H128.529Z" fill="white"/>
<path d="M134.759 142.717C134.926 143.236 135.155 143.651 135.467 143.982C135.779 144.336 136.133 144.584 136.549 144.771C136.945 144.958 137.382 145.041 137.84 145.041C138.298 145.041 138.735 144.958 139.151 144.771C139.547 144.584 139.9 144.336 140.212 143.982C140.525 143.651 140.754 143.236 140.941 142.717C141.108 142.219 141.191 141.638 141.191 140.994C141.191 140.351 141.108 139.769 140.941 139.251C140.754 138.753 140.525 138.337 140.212 137.985C139.9 137.632 139.547 137.383 139.151 137.196C138.735 137.009 138.298 136.926 137.84 136.926C137.382 136.926 136.945 137.009 136.549 137.196C136.133 137.383 135.779 137.632 135.467 137.985C135.155 138.337 134.926 138.753 134.759 139.251C134.572 139.769 134.488 140.351 134.488 140.994C134.488 141.638 134.572 142.219 134.759 142.717ZM132.948 138.773C133.177 138.088 133.511 137.507 133.947 136.988C134.385 136.49 134.946 136.096 135.592 135.805C136.237 135.515 136.987 135.37 137.84 135.37C138.693 135.37 139.463 135.515 140.109 135.805C140.754 136.096 141.295 136.49 141.732 136.988C142.169 137.507 142.502 138.088 142.731 138.773C142.96 139.458 143.064 140.205 143.064 140.994C143.064 141.782 142.96 142.509 142.731 143.194C142.502 143.879 142.169 144.46 141.732 144.958C141.295 145.477 140.754 145.871 140.109 146.141C139.463 146.432 138.693 146.577 137.84 146.577C136.987 146.577 136.237 146.432 135.592 146.141C134.946 145.871 134.385 145.477 133.947 144.958C133.511 144.46 133.177 143.879 132.948 143.194C132.719 142.509 132.615 141.782 132.615 140.994C132.615 140.205 132.719 139.458 132.948 138.773Z" fill="white"/>
<path d="M145.998 135.618V137.32H146.04C146.768 136.013 147.934 135.369 149.537 135.369C150.244 135.369 150.828 135.473 151.306 135.66C151.785 135.846 152.16 136.116 152.451 136.47C152.742 136.822 152.95 137.216 153.076 137.694C153.179 138.171 153.242 138.711 153.242 139.292V146.348H151.473V139.084C151.473 138.42 151.285 137.901 150.89 137.507C150.494 137.113 149.974 136.926 149.287 136.926C148.746 136.926 148.288 137.009 147.893 137.175C147.497 137.341 147.164 137.57 146.894 137.881C146.623 138.192 146.436 138.545 146.31 138.939C146.165 139.355 146.103 139.811 146.103 140.288V146.348H144.333V135.618H145.998Z" fill="white"/>
<path d="M156.545 135.618V137.196H156.586C157.398 135.971 158.543 135.369 160.062 135.369C160.729 135.369 161.332 135.515 161.873 135.785C162.414 136.054 162.789 136.531 163.018 137.196C163.372 136.615 163.851 136.158 164.455 135.846C165.037 135.535 165.683 135.369 166.39 135.369C166.931 135.369 167.431 135.431 167.868 135.535C168.305 135.66 168.679 135.846 168.991 136.096C169.304 136.345 169.533 136.656 169.721 137.05C169.887 137.445 169.97 137.922 169.97 138.483V146.348H168.201V139.312C168.201 138.981 168.18 138.67 168.118 138.379C168.055 138.088 167.951 137.839 167.805 137.611C167.66 137.403 167.451 137.237 167.181 137.113C166.91 136.988 166.557 136.926 166.119 136.926C165.245 136.926 164.558 137.175 164.059 137.673C163.559 138.171 163.309 138.835 163.309 139.666V146.348H161.54V139.312C161.54 138.96 161.52 138.649 161.457 138.358C161.394 138.068 161.27 137.818 161.124 137.59C160.978 137.383 160.77 137.216 160.52 137.092C160.25 136.988 159.917 136.926 159.521 136.926C159.001 136.926 158.564 137.029 158.21 137.237C157.835 137.445 157.544 137.694 157.315 137.985C157.086 138.275 156.92 138.566 156.815 138.877C156.711 139.188 156.649 139.458 156.649 139.666V146.348H154.879V135.618H156.545Z" fill="white"/>
<path d="M178.961 138.773C178.795 138.399 178.586 138.068 178.316 137.798C178.045 137.528 177.713 137.32 177.359 137.155C176.984 137.009 176.568 136.926 176.131 136.926C175.673 136.926 175.256 137.009 174.903 137.155C174.528 137.32 174.216 137.549 173.945 137.818C173.675 138.088 173.466 138.42 173.32 138.773C173.175 139.147 173.071 139.541 173.05 139.956H179.232C179.211 139.541 179.107 139.147 178.961 138.773ZM179.378 145.663C178.566 146.265 177.567 146.577 176.339 146.577C175.485 146.577 174.736 146.432 174.112 146.162C173.466 145.892 172.946 145.498 172.509 145C172.072 144.502 171.759 143.9 171.552 143.215C171.323 142.53 171.198 141.762 171.177 140.953C171.177 140.143 171.301 139.396 171.552 138.711C171.802 138.026 172.155 137.445 172.613 136.947C173.05 136.449 173.591 136.054 174.216 135.785C174.82 135.515 175.506 135.37 176.235 135.37C177.192 135.37 177.983 135.556 178.629 135.951C179.253 136.345 179.752 136.864 180.148 137.466C180.522 138.068 180.793 138.732 180.939 139.458C181.084 140.184 181.126 140.869 181.106 141.513H173.05C173.03 141.99 173.092 142.426 173.217 142.841C173.342 143.277 173.549 143.651 173.82 143.962C174.091 144.294 174.445 144.564 174.882 144.75C175.319 144.937 175.819 145.041 176.401 145.041C177.151 145.041 177.775 144.875 178.254 144.522C178.732 144.169 179.044 143.651 179.19 142.945H180.939C180.71 144.149 180.189 145.062 179.378 145.663Z" fill="white"/>
<path d="M184.028 135.618V137.32H184.07C184.798 136.013 185.963 135.369 187.566 135.369C188.274 135.369 188.857 135.473 189.336 135.66C189.814 135.846 190.189 136.116 190.481 136.47C190.771 136.822 190.98 137.216 191.105 137.694C191.209 138.171 191.271 138.711 191.271 139.292V146.348H189.502V139.084C189.502 138.42 189.315 137.901 188.919 137.507C188.523 137.113 188.004 136.926 187.317 136.926C186.776 136.926 186.318 137.009 185.922 137.175C185.527 137.341 185.193 137.57 184.923 137.881C184.652 138.192 184.465 138.545 184.34 138.939C184.194 139.355 184.132 139.811 184.132 140.288V146.348H182.363V135.618H184.028Z" fill="white"/>
<path d="M197.908 135.619V137.175H195.764V143.837C195.764 144.045 195.784 144.211 195.826 144.336C195.847 144.46 195.91 144.564 196.013 144.626C196.118 144.689 196.242 144.73 196.43 144.751C196.597 144.772 196.826 144.793 197.096 144.793H197.908V146.349H196.554C196.096 146.349 195.701 146.307 195.389 146.245C195.056 146.183 194.785 146.079 194.598 145.913C194.39 145.747 194.244 145.519 194.14 145.207C194.036 144.896 193.994 144.502 193.994 144.004V137.175H192.163V135.619H193.994V132.402H195.764V135.619H197.908Z" fill="white"/>
</g>
<defs>
<clipPath id="clip0">
<rect width="232" height="216" fill="white"/>
</clipPath>
</defs>
</svg>
